<svg xmlns="http://www.w3.org/2000/svg" width="211" height="46" viewBox="0 0 211 46">
  <polygon points="0 40.161 12.31 40.165 29.497 15.114 29.497 29.977 29.492 29.977 23.062 29.977 23.081 40.204 39.695 40.204 39.688 .224 27.398 .223"/>
  <polygon points="45.244 10.435 69.943 10.435 69.943 .241 45.244 .241"/>
  <polygon points="45.252 25.29 69.95 25.29 69.95 15.095 45.252 15.095"/>
  <polygon points="75.634 40.197 85.824 40.197 85.824 .244 75.634 .244"/>
  <path d="M101.6433.2289L95.0353 18.7749 99.1133 18.7749 100.4053 14.9379 107.2463 14.9379 108.4333 18.7749 112.6393 18.7749 106.1083.2289 101.6433.2289zM103.8123 4.4089L103.8633 4.4089 106.1603 11.7319 101.4363 11.7319 103.8123 4.4089zM117.5377 18.7746L113.9377 18.7746 113.9377 7.6206 111.9507 7.6206 111.9507 5.0326 113.9377 5.0326 113.9377 3.9266C113.9377 1.0866 115.4807-.0004 117.9507-.0004 119.0087-.0004 119.4997.0256 119.8087.0516L119.8087 2.9736 118.8027 2.9736C117.5637 2.9736 117.5377 3.3606 117.5377 4.4926L117.5377 5.0326 119.8867 5.0326 119.8867 7.6206 117.5377 7.6206 117.5377 18.7746z"/>
  <path d="M124.894 18.7746L121.294 18.7746 121.294 7.6206 119.306 7.6206 119.306 5.0326 121.294 5.0326 121.294 3.9266C121.294 1.0866 122.837-.0004 125.307-.0004 126.365-.0004 126.855.0256 127.165.0516L127.165 2.9736 126.159 2.9736C124.92 2.9736 124.894 3.3606 124.894 4.4926L124.894 5.0326 127.242 5.0326 127.242 7.6206 124.894 7.6206 124.894 18.7746zM128.443 3.3995L132.043 3.3995 132.043.0385 128.443.0385 128.443 3.3995zM128.443 18.7755L132.043 18.7755 132.043 5.0305 128.443 5.0305 128.443 18.7755z"/>
  <polygon points="134.328 18.776 137.928 18.776 137.928 .23 134.328 .23"/>
  <path d="M140.214 3.3995L143.814 3.3995 143.814.0385 140.214.0385 140.214 3.3995zM140.214 18.7755L143.814 18.7755 143.814 5.0305 140.214 5.0305 140.214 18.7755zM153.6083 13.8486C153.6083 15.5046 151.9783 16.5326 150.3743 16.5326 149.6763 16.5326 148.6923 16.1466 148.6923 14.8856 148.6923 13.3946 149.8053 13.0606 151.1503 12.8286 152.6513 12.5976 153.2463 12.3666 153.6083 12.0836L153.6083 13.8486zM157.1313 8.6646C157.1313 5.2796 153.6083 4.6846 151.6693 4.6846 148.8483 4.6846 145.9413 5.2796 145.5293 9.4906L149.0033 9.4906C149.1063 8.6906 149.4173 7.5816 151.2283 7.5816 152.1603 7.5816 153.6083 7.6576 153.6083 9.1806 153.6083 9.9536 152.9113 10.1866 152.3413 10.2636L149.0813 10.7536C146.7903 11.0886 145.0923 12.4556 145.0923 15.1376 145.0923 17.9556 147.2013 19.1196 149.2623 19.1196 151.7203 19.1196 152.8853 17.9816 153.7123 17.1266 153.7893 17.9226 153.8403 18.1296 154.0453 18.7746L157.9323 18.7746 157.9323 18.2326C157.4923 18.0776 157.1313 17.7166 157.1313 16.0916L157.1313 8.6646zM163.2377 5.0332L165.4837 5.0332 165.4837 7.6202 163.2377 7.6202 163.2377 15.0742C163.2377 15.8752 163.2637 16.1842 164.7347 16.1842 164.9667 16.1842 165.2257 16.1582 165.4837 16.1322L165.4837 18.8742C164.9157 18.9002 164.3467 18.9262 163.7797 18.9262L163.3157 18.9262C160.2037 18.9262 159.6377 17.7352 159.6377 15.9512L159.6377 7.6202 157.7797 7.6202 157.7797 5.0332 159.6377 5.0332 159.6377 1.3152 163.2377 1.3152 163.2377 5.0332zM169.3672 10.5316C169.5742 8.7366 170.4802 7.6586 172.1872 7.6586 173.3512 7.6586 174.7742 8.3266 174.9812 10.5316L169.3672 10.5316zM174.8252 14.7346C174.5412 15.7096 173.5062 16.2236 172.4982 16.2236 169.5742 16.2236 169.3672 13.9126 169.2642 12.8866L178.6972 12.8866 178.6972 12.2396C178.6972 5.9776 174.9552 4.6856 172.2392 4.6856 166.2192 4.6856 165.6512 9.9666 165.6512 11.6176 165.6512 17.2566 168.6182 19.1196 172.4982 19.1196 174.8512 19.1196 177.5872 18.0336 178.5432 14.7346L174.8252 14.7346zM183.2542 12.0055C183.2542 9.8455 184.0272 7.8135 186.3192 7.8135 188.7902 7.8135 189.4092 10.0255 189.4092 12.2115 189.4092 14.2425 188.5072 16.1455 186.2162 16.1455 183.8992 16.1455 183.2542 13.6245 183.2542 12.0055zM192.8552.2285L189.2552.2285 189.2552 6.8315 189.2032 6.8315C188.6372 5.9515 187.5552 4.6845 185.2372 4.6845 182.2222 4.6845 179.5382 7.0125 179.5382 11.7485 179.5382 15.5035 181.2412 19.1195 185.3152 19.1195 186.8082 19.1195 188.4042 18.5765 189.2802 17.0245L189.3322 17.0245 189.3322 18.7745 192.8552 18.7745 192.8552.2285z"/>
  <polygon points="109.043 24.957 99.209 24.957 99.209 28.836 108.242 28.836 108.242 32.12 99.209 32.12 99.209 36.928 109.483 36.928 109.483 40.212 95.415 40.212 95.415 21.673 109.043 21.673"/>
  <path d="M123.4569 40.2158L119.8579 40.2158 119.8579 31.8848C119.8579 30.8798 119.8049 29.1778 117.5089 29.1778 115.9079 29.1778 114.6709 30.2608 114.6709 32.3248L114.6709 40.2158 111.0709 40.2158 111.0709 26.4708 114.5159 26.4708 114.5159 28.5048 114.5659 28.5048C115.0579 27.6778 116.0889 26.1268 118.6949 26.1268 121.3739 26.1268 123.4569 27.7028 123.4569 30.7248L123.4569 40.2158zM128.4795 33.4103C128.4795 30.2343 129.9795 29.2543 131.3245 29.2543 133.3415 29.2543 134.4275 31.0573 134.4275 33.2723 134.4275 35.1523 133.8075 37.2383 131.3505 37.2383 129.2035 37.2383 128.4795 35.1693 128.4795 33.4103zM134.5555 26.4713L134.5555 28.5313 134.5055 28.5313C134.0655 27.6253 133.0295 26.1253 130.4705 26.1253 127.4455 26.1253 124.7635 28.4533 124.7635 33.1953 124.7635 37.9883 127.3685 40.2903 130.6775 40.2903 132.8505 40.2903 133.7545 39.2823 134.3495 38.2203L134.4025 38.2733 134.4025 39.9273C134.4025 42.1523 133.4705 43.0843 131.5305 43.0843 129.4365 43.0843 129.1505 42.3863 128.9955 41.6873L125.0725 41.6873C125.2285 44.6103 128.2205 45.8263 131.0655 45.8263 137.8215 45.8263 138.0025 41.8683 138.0025 39.4883L138.0025 26.4713 134.5555 26.4713zM139.979 40.2165L143.579 40.2165 143.579 26.4715 139.979 26.4715 139.979 40.2165zM139.979 24.8405L143.579 24.8405 143.579 21.4785 139.979 21.4785 139.979 24.8405zM158.1744 40.2158L154.5744 40.2158 154.5744 31.8848C154.5744 30.8798 154.5224 29.1778 152.2254 29.1778 150.6254 29.1778 149.3874 30.2608 149.3874 32.3248L149.3874 40.2158 145.7874 40.2158 145.7874 26.4708 149.2324 26.4708 149.2324 28.5048 149.2844 28.5048C149.7734 27.6778 150.8064 26.1268 153.4124 26.1268 156.0914 26.1268 158.1744 27.7028 158.1744 30.7248L158.1744 40.2158zM162.9901 31.9727C163.1961 30.1777 164.1021 29.0997 165.8081 29.0997 166.9741 29.0997 168.3971 29.7667 168.6031 31.9727L162.9901 31.9727zM168.4471 36.1757C168.1631 37.1507 167.1281 37.6647 166.1201 37.6647 163.1961 37.6647 162.9901 35.3537 162.8861 34.3277L172.3191 34.3277 172.3191 33.6797C172.3191 27.4187 168.5771 26.1267 165.8611 26.1267 159.8411 26.1267 159.2741 31.4077 159.2741 33.0587 159.2741 38.6977 162.2411 40.5607 166.1201 40.5607 168.4741 40.5607 171.2091 39.4747 172.1641 36.1757L168.4471 36.1757zM176.7472 31.9727C176.9532 30.1777 177.8602 29.0997 179.5662 29.0997 180.7312 29.0997 182.1542 29.7667 182.3602 31.9727L176.7472 31.9727zM182.2052 36.1757C181.9212 37.1507 180.8862 37.6647 179.8782 37.6647 176.9532 37.6647 176.7472 35.3537 176.6442 34.3277L186.0762 34.3277 186.0762 33.6797C186.0762 27.4187 182.3352 26.1267 179.6192 26.1267 173.5992 26.1267 173.0312 31.4077 173.0312 33.0587 173.0312 38.6977 175.9992 40.5607 179.8782 40.5607 182.2302 40.5607 184.9672 39.4747 185.9212 36.1757L182.2052 36.1757zM187.3055 26.4708L190.7505 26.4708 190.7505 28.8388 190.8025 28.8388C191.5505 27.4558 192.3765 26.1218 194.5705 26.1218 194.8025 26.1218 195.0345 26.1488 195.2675 26.1738L195.2675 29.8138C194.9585 29.7628 194.5705 29.7628 194.2345 29.7628 191.4205 29.7628 190.9055 31.5208 190.9055 33.0488L190.9055 40.2158 187.3055 40.2158 187.3055 26.4708zM203.9656 30.6718C203.8106 29.7958 203.5006 28.8678 201.5446 28.8678 199.5796 28.8678 199.3206 29.6148 199.3206 30.2078 199.3206 32.3738 207.9146 30.7998 207.9146 35.8448 207.9146 39.8368 204.0556 40.5608 201.9076 40.5608 198.7786 40.5608 195.3976 39.4738 195.2946 35.8198L199.0106 35.8198C199.0106 36.9728 199.7346 37.8188 202.0106 37.8188 203.8736 37.8188 204.3146 36.9218 204.3146 36.4088 204.3146 34.1248 195.7976 35.8448 195.7976 30.7238 195.7976 28.7128 197.0566 26.1258 201.3336 26.1258 204.0156 26.1258 207.2046 26.7988 207.4886 30.6718L203.9656 30.6718z"/>
  <polygon points="45.247 40.219 69.945 40.219 69.945 30.026 45.247 30.026"/>
  <path d="M207.9797,28.2618 C207.9797,27.4778 208.5707,26.8868 209.3287,26.8868 C210.0767,26.8868 210.6677,27.4778 210.6677,28.2618 C210.6677,29.0588 210.0767,29.6458 209.3287,29.6458 C208.5707,29.6458 207.9797,29.0588 207.9797,28.2618 Z M209.3287,29.9218 C210.2307,29.9218 210.9997,29.2208 210.9997,28.2618 C210.9997,27.3108 210.2307,26.6108 209.3287,26.6108 C208.4167,26.6108 207.6467,27.3108 207.6467,28.2618 C207.6467,29.2208 208.4167,29.9218 209.3287,29.9218 Z M208.9777,28.3938 L209.3097,28.3938 L209.8147,29.2208 L210.1367,29.2208 L209.5947,28.3808 C209.8747,28.3448 210.0887,28.1958 210.0887,27.8548 C210.0887,27.4778 209.8667,27.3108 209.4147,27.3108 L208.6877,27.3108 L208.6877,29.2208 L208.9777,29.2208 L208.9777,28.3938 Z M208.9777,28.1478 L208.9777,27.5568 L209.3717,27.5568 C209.5737,27.5568 209.7887,27.6008 209.7887,27.8368 C209.7887,28.1298 209.5697,28.1478 209.3237,28.1478 L208.9777,28.1478 Z"/>
</svg>
