<?xml version="1.0" encoding="utf-8"?>
<!-- Generator: Adobe Illustrator 22.1.0, SVG Export Plug-In . SVG Version: 6.00 Build 0)  -->
<svg version="1.1" id="Layer_1" xmlns="http://www.w3.org/2000/svg" xmlns:xlink="http://www.w3.org/1999/xlink" x="0px" y="0px"
	 viewBox="0 0 340.7 74" style="enable-background:new 0 0 340.7 74;" xml:space="preserve">
<polygon points="64.1,64.9 64.1,0.4 44.2,0.4 0,64.8 19.9,64.8 47.6,24.4 47.6,48.4 47.6,48.4 37.2,48.4 37.3,64.9 "/>
<rect x="73" y="0.4" width="39.9" height="16.5"/>
<rect x="73.1" y="24.4" width="39.9" height="16.5"/>
<rect x="122.1" y="0.4" width="16.5" height="64.5"/>
<path d="M167.6,7.1L167.6,7.1l3.8,11.8h-7.6L167.6,7.1z M162.1,24.1h11l1.9,6.2h6.8L171.3,0.4h-7.2l-10.7,29.9h6.6L162.1,24.1z"/>
<path d="M189.8,30.3H184v-18h-3.2V8.1h3.2V6.3c0-4.6,2.5-6.3,6.5-6.3c1.7,0,2.5,0,3,0.1v4.7h-1.6c-2,0-2,0.6-2,2.5v0.9h3.8v4.2h-3.8
	V30.3z"/>
<path d="M201.6,30.3h-5.8v-18h-3.2V8.1h3.2V6.3c0-4.6,2.5-6.3,6.5-6.3c1.7,0,2.5,0,3,0.1v4.7h-1.6c-2,0-2,0.6-2,2.5v0.9h3.8v4.2
	h-3.8V30.3z"/>
<path d="M213.2,8.1v22.2h-5.8V8.1H213.2z M213.2,5.5h-5.8V0.1h5.8V5.5z"/>
<path d="M222.7,30.3h-5.8V0.4h5.8V30.3z"/>
<path d="M232.2,8.1v22.2h-5.8V8.1H232.2z M232.2,5.5h-5.8V0.1h5.8V5.5z"/>
<path d="M248,22.4c0,2.7-2.6,4.3-5.2,4.3c-1.1,0-2.7-0.6-2.7-2.7c0-2.4,1.8-2.9,4-3.3c2.4-0.4,3.4-0.7,4-1.2V22.4z M253.7,14
	c0-5.5-5.7-6.4-8.8-6.4c-4.6,0-9.2,1-9.9,7.8h5.6c0.2-1.3,0.7-3.1,3.6-3.1c1.5,0,3.8,0.1,3.8,2.6c0,1.2-1.1,1.6-2,1.7l-5.3,0.8
	c-3.7,0.5-6.4,2.7-6.4,7.1c0,4.5,3.4,6.4,6.7,6.4c4,0,5.8-1.8,7.2-3.2c0.1,1.3,0.2,1.6,0.5,2.7h6.3v-0.9c-0.7-0.2-1.3-0.8-1.3-3.5
	V14z"/>
<path d="M263.6,8.1h3.6v4.2h-3.6v12c0,1.3,0,1.8,2.4,1.8c0.4,0,0.8,0,1.2-0.1v4.4c-0.9,0-1.8,0.1-2.8,0.1h-0.8c-5,0-5.9-1.9-5.9-4.8
	V12.3h-3V8.1h3v-6h5.8V8.1z"/>
<path d="M273.5,17c0.3-2.9,1.8-4.6,4.6-4.6c1.9,0,4.2,1.1,4.5,4.6H273.5z M282.3,23.8c-0.5,1.6-2.1,2.4-3.8,2.4
	c-4.7,0-5.1-3.7-5.2-5.4h15.2v-1c0-10.1-6-12.2-10.4-12.2c-9.7,0-10.6,8.5-10.6,11.2c0,9.1,4.8,12.1,11.1,12.1
	c3.8,0,8.2-1.8,9.8-7.1H282.3z"/>
<path d="M295.9,19.4c0-3.5,1.2-6.8,4.9-6.8c4,0,5,3.6,5,7.1c0,3.3-1.5,6.4-5.2,6.4C296.9,26.1,295.9,22,295.9,19.4z M311.4,0.4h-5.8
	V11h-0.1c-0.9-1.4-2.7-3.5-6.4-3.5c-4.9,0-9.2,3.8-9.2,11.4c0,6.1,2.8,11.9,9.3,11.9c2.4,0,5-0.9,6.4-3.4h0.1v2.8h5.7V0.4z"/>
<path d="M176.1,40.3h-15.9v6.3h14.6v5.3h-14.6v7.8h16.6v5.3h-22.7V35h22V40.3z"/>
<path d="M199.3,64.9h-5.8V51.5c0-1.6-0.1-4.4-3.8-4.4c-2.6,0-4.6,1.7-4.6,5.1v12.7h-5.8V42.7h5.6V46h0.1c0.8-1.3,2.5-3.8,6.7-3.8
	c4.3,0,7.7,2.5,7.7,7.4V64.9z"/>
<path d="M207.4,53.9c0-5.1,2.4-6.7,4.6-6.7c3.3,0,5,2.9,5,6.5c0,3-1,6.4-5,6.4C208.6,60.1,207.4,56.8,207.4,53.9z M217.2,42.7v3.3
	h-0.1c-0.7-1.5-2.4-3.9-6.5-3.9c-4.9,0-9.2,3.8-9.2,11.4c0,7.7,4.2,11.5,9.5,11.5c3.5,0,5-1.6,5.9-3.3l0.1,0.1v2.7
	c0,3.6-1.5,5.1-4.6,5.1c-3.4,0-3.8-1.1-4.1-2.3h-6.3c0.2,4.7,5.1,6.7,9.7,6.7c10.9,0,11.2-6.4,11.2-10.2v-21H217.2z"/>
<path d="M231.8,42.7v22.2H226V42.7H231.8z M231.8,40.1H226v-5.4h5.8V40.1z"/>
<path d="M255.4,64.9h-5.8V51.5c0-1.6-0.1-4.4-3.8-4.4c-2.6,0-4.6,1.7-4.6,5.1v12.7h-5.8V42.7h5.6V46h0.1c0.8-1.3,2.5-3.8,6.7-3.8
	c4.3,0,7.7,2.5,7.7,7.4V64.9z"/>
<path d="M263.2,51.6c0.3-2.9,1.8-4.6,4.6-4.6c1.9,0,4.2,1.1,4.5,4.6H263.2z M272,58.4c-0.5,1.6-2.1,2.4-3.8,2.4
	c-4.7,0-5.1-3.7-5.2-5.4h15.2v-1c0-10.1-6-12.2-10.4-12.2c-9.7,0-10.6,8.5-10.6,11.2c0,9.1,4.8,12.1,11.1,12.1
	c3.8,0,8.2-1.8,9.8-7.1H272z"/>
<path d="M285.4,51.6c0.3-2.9,1.8-4.6,4.6-4.6c1.9,0,4.2,1.1,4.5,4.6H285.4z M294.2,58.4c-0.5,1.6-2.1,2.4-3.8,2.4
	c-4.7,0-5.1-3.7-5.2-5.4h15.2v-1c0-10.1-6-12.2-10.4-12.2c-9.7,0-10.6,8.5-10.6,11.2c0,9.1,4.8,12.1,11.1,12.1
	c3.8,0,8.2-1.8,9.8-7.1H294.2z"/>
<path d="M302.4,42.7h5.6v3.8h0.1c1.2-2.2,2.5-4.4,6.1-4.4c0.4,0,0.8,0,1.1,0.1v5.9c-0.5-0.1-1.1-0.1-1.7-0.1c-4.5,0-5.4,2.8-5.4,5.3
	v11.6h-5.8V42.7z"/>
<path d="M329.3,49.5c-0.2-1.4-0.8-2.9-3.9-2.9c-3.2,0-3.6,1.2-3.6,2.2c0,3.5,13.9,1,13.9,9.1c0,6.4-6.2,7.6-9.7,7.6
	c-5.1,0-10.5-1.8-10.7-7.7h6c0,1.9,1.2,3.2,4.8,3.2c3,0,3.7-1.4,3.7-2.3c0-3.7-13.8-0.9-13.8-9.2c0-3.2,2-7.4,8.9-7.4
	c4.3,0,9.5,1.1,9.9,7.3H329.3z"/>
<rect x="73.1" y="48.5" width="39.9" height="16.5"/>
<path d="M335.8,45.6c0-1.3,1-2.2,2.2-2.2c1.2,0,2.2,1,2.2,2.2c0,1.3-1,2.2-2.2,2.2C336.7,47.9,335.8,46.9,335.8,45.6z M338,48.3
	c1.5,0,2.7-1.1,2.7-2.7c0-1.5-1.2-2.7-2.7-2.7c-1.5,0-2.7,1.1-2.7,2.7C335.3,47.2,336.5,48.3,338,48.3z M337.4,45.8h0.5l0.8,1.3h0.5
	l-0.9-1.4c0.5-0.1,0.8-0.3,0.8-0.8c0-0.6-0.4-0.9-1.1-0.9h-1.2v3.1h0.5V45.8z M337.4,45.4v-1h0.6c0.3,0,0.7,0.1,0.7,0.5
	c0,0.5-0.4,0.5-0.8,0.5H337.4z"/>
</svg>
