<svg xmlns="http://www.w3.org/2000/svg" width="15" height="11" viewBox="0 0 15 11">
  <path fill="#D1CCC2" fill-rule="evenodd" d="M15.6865,1.6401 C15.5145,0.9951 15.0055,0.4861 14.3615,0.3141 C13.1915,0.0001 8.4995,0.0001 8.4995,0.0001 C8.4995,0.0001 3.8105,0.0001 2.6405,0.3141 C1.9955,0.4861 1.4855,0.9951 1.3135,1.6401 C0.9995,2.8101 0.9995,5.2501 0.9995,5.2501 C0.9995,5.2501 0.9995,7.6911 1.3135,8.8611 C1.4855,9.5061 1.9955,10.0141 2.6405,10.1861 C3.8105,10.5001 8.4995,10.5001 8.4995,10.5001 C8.4995,10.5001 13.1915,10.5001 14.3615,10.1861 C15.0055,10.0141 15.5145,9.5061 15.6865,8.8611 C15.9995,7.6911 15.9995,5.2501 15.9995,5.2501 C15.9995,5.2501 15.9995,2.8101 15.6865,1.6401 Z M6.9995,7.5001 L6.9995,3.0001 L10.8975,5.2501 L6.9995,7.5001 Z" transform="translate(-1)"/>
</svg>
