<svg xmlns="http://www.w3.org/2000/svg">
	<symbol id="affiliated-engineers-logo" viewBox="0 0 211 46">
		<path d="M0 40.161l12.31.004 17.187-25.051v14.863h-6.435l.019 10.227h16.614L39.688.224 27.398.223z"/>
		<path d="M45.244 10.435h24.699V.241H45.244z"/>
		<path d="M45.252 25.29H69.95V15.095H45.252z"/>
		<path d="M75.634 40.197h10.19V.244h-10.19z"/>
		<path d="M101.643.229l-6.608 18.546h4.078l1.292-3.837h6.841l1.187 3.837h4.206L106.11.229h-4.466zm2.17 4.18h.05l2.297 7.323h-4.724l2.376-7.323zm13.725 14.366h-3.6V7.62h-1.987V5.033h1.987V3.927c0-2.84 1.543-3.927 4.013-3.927 1.058 0 1.549.026 1.858.052v2.922h-1.006c-1.24 0-1.265.387-1.265 1.519v.54h2.349V7.62h-2.35v11.154z"/>
		<path d="M124.894 18.775h-3.6V7.62h-1.988V5.033h1.988V3.927c0-2.84 1.543-3.927 4.013-3.927 1.058 0 1.548.026 1.858.052v2.922h-1.006c-1.239 0-1.265.387-1.265 1.519v.54h2.348V7.62h-2.348v11.154zM128.443 3.4h3.6V.038h-3.6v3.36zm0 15.376h3.6V5.03h-3.6v13.745z"/>
		<path d="M134.328 18.776h3.6V.23h-3.6z"/>
		<path d="M140.214 3.4h3.6V.038h-3.6v3.36zm0 15.376h3.6V5.03h-3.6v13.745zm13.394-4.927c0 1.656-1.63 2.684-3.234 2.684-.698 0-1.682-.386-1.682-1.647 0-1.491 1.113-1.825 2.458-2.057 1.501-.231 2.096-.462 2.458-.745v1.765zm3.523-5.184c0-3.385-3.523-3.98-5.462-3.98-2.82 0-5.728.595-6.14 4.806h3.474c.103-.8.414-1.91 2.225-1.91.932 0 2.38.077 2.38 1.6 0 .773-.697 1.006-1.267 1.083l-3.26.49c-2.29.335-3.989 1.702-3.989 4.384 0 2.818 2.11 3.982 4.17 3.982 2.458 0 3.623-1.138 4.45-1.993.077.796.128 1.003.333 1.648h3.887v-.542c-.44-.155-.8-.516-.8-2.141V8.665zm6.107-3.632h2.246V7.62h-2.246v7.454c0 .801.026 1.11 1.497 1.11.232 0 .49-.026.749-.052v2.742c-.568.026-1.137.052-1.704.052h-.464c-3.112 0-3.678-1.19-3.678-2.975v-8.33h-1.858V5.032h1.858V1.315h3.6v3.718zm6.13 5.499c.206-1.795 1.112-2.873 2.82-2.873 1.163 0 2.586.668 2.793 2.873h-5.614zm5.457 4.203c-.284.975-1.319 1.489-2.327 1.489-2.924 0-3.13-2.311-3.234-3.337h9.433v-.647c0-6.262-3.742-7.554-6.458-7.554-6.02 0-6.588 5.28-6.588 6.932 0 5.639 2.967 7.502 6.847 7.502 2.353 0 5.09-1.086 6.045-4.385h-3.718zm8.43-2.73c0-2.16.772-4.192 3.064-4.192 2.471 0 3.09 2.212 3.09 4.398 0 2.031-.902 3.934-3.193 3.934-2.317 0-2.962-2.52-2.962-4.14zm9.6-11.777h-3.6v6.603h-.052c-.566-.88-1.648-2.147-3.966-2.147-3.015 0-5.699 2.329-5.699 7.064 0 3.756 1.703 7.371 5.777 7.371 1.493 0 3.09-.543 3.965-2.095h.052v1.75h3.523V.229z"/>
		<path d="M109.043 24.957h-9.834v3.879h9.033v3.284h-9.033v4.808h10.274v3.284H95.415V21.673h13.628z"/>
		<path d="M123.457 40.216h-3.6v-8.331c0-1.005-.052-2.707-2.348-2.707-1.601 0-2.838 1.083-2.838 3.147v7.89h-3.6V26.472h3.445v2.034h.05c.492-.827 1.523-2.378 4.129-2.378 2.679 0 4.762 1.576 4.762 4.598v9.49zm5.023-6.806c0-3.176 1.5-4.156 2.845-4.156 2.017 0 3.103 1.803 3.103 4.018 0 1.88-.62 3.966-3.077 3.966-2.148 0-2.871-2.069-2.871-3.828zm6.076-6.939v2.06h-.05c-.44-.906-1.476-2.406-4.036-2.406-3.025 0-5.707 2.328-5.707 7.07 0 4.793 2.605 7.095 5.915 7.095 2.173 0 3.077-1.008 3.672-2.07l.053.053v1.654c0 2.225-.933 3.157-2.873 3.157-2.094 0-2.38-.698-2.535-1.397h-3.922c.156 2.923 3.147 4.14 5.992 4.14 6.756 0 6.938-3.959 6.938-6.339V26.471h-3.447zm5.423 13.746h3.6V26.472h-3.6v13.745zm0-15.377h3.6V21.48h-3.6v3.361zm18.195 15.376h-3.6v-8.331c0-1.005-.052-2.707-2.349-2.707-1.6 0-2.838 1.083-2.838 3.147v7.89h-3.6V26.472h3.445v2.034h.052c.49-.827 1.522-2.378 4.128-2.378 2.68 0 4.762 1.576 4.762 4.598v9.49zm4.816-8.243c.206-1.795 1.112-2.873 2.818-2.873 1.166 0 2.59.667 2.795 2.873h-5.613zm5.457 4.203c-.284.975-1.319 1.489-2.327 1.489-2.924 0-3.13-2.311-3.234-3.337h9.433v-.648c0-6.261-3.742-7.553-6.458-7.553-6.02 0-6.587 5.28-6.587 6.932 0 5.639 2.967 7.502 6.846 7.502 2.354 0 5.09-1.086 6.044-4.385h-3.717zm8.3-4.203c.206-1.795 1.113-2.873 2.82-2.873 1.164 0 2.587.667 2.793 2.873h-5.613zm5.458 4.203c-.284.975-1.319 1.489-2.327 1.489-2.925 0-3.13-2.311-3.234-3.337h9.432v-.648c0-6.261-3.74-7.553-6.457-7.553-6.02 0-6.588 5.28-6.588 6.932 0 5.639 2.968 7.502 6.847 7.502 2.352 0 5.09-1.086 6.043-4.385h-3.716zm5.1-9.705h3.445v2.368h.053c.748-1.383 1.573-2.717 3.768-2.717.232 0 .464.027.697.052v3.64c-.31-.051-.697-.051-1.034-.051-2.814 0-3.329 1.758-3.329 3.286v7.167h-3.6V26.47zm16.66 4.2c-.154-.875-.464-1.803-2.42-1.803-1.965 0-2.224.747-2.224 1.34 0 2.166 8.594.592 8.594 5.637 0 3.992-3.86 4.716-6.007 4.716-3.13 0-6.51-1.087-6.613-4.741h3.716c0 1.153.724 1.999 3 1.999 1.863 0 2.304-.897 2.304-1.41 0-2.284-8.517-.564-8.517-5.685 0-2.011 1.259-4.598 5.536-4.598 2.682 0 5.87.673 6.155 4.546h-3.523z"/>
		<path d="M45.247 40.219h24.698V30.026H45.247z"/>
		<path d="M207.98 28.262c0-.784.59-1.375 1.349-1.375.748 0 1.339.59 1.339 1.375 0 .797-.591 1.384-1.34 1.384-.757 0-1.348-.587-1.348-1.384zm1.349 1.66c.902 0 1.67-.701 1.67-1.66 0-.951-.768-1.651-1.67-1.651-.912 0-1.682.7-1.682 1.65 0 .96.77 1.66 1.682 1.66zm-.351-1.528h.332l.505.827h.322l-.542-.84c.28-.036.494-.185.494-.526 0-.377-.222-.544-.674-.544h-.727v1.91h.29v-.827zm0-.246v-.591h.394c.202 0 .417.044.417.28 0 .293-.22.31-.465.31h-.346z"/>
	</symbol>
	<symbol id="icon-down-arrow" viewBox="0 0 11 15.7">
		<path d="M6.3 12.1h.5L11 7.9v2.3l-5.5 5.5L0 10.2V7.9l4.2 4.2h.4V0h1.7v12.1z"/>
	</symbol>
	<symbol id="icon-hamburger" viewBox="0 0 24 18">
		<path d="M0 17h24M0 1h24M0 9h24"/>
	</symbol>
	<symbol id="icon-instagram" viewBox="0 0 12 12">
		<path d="M6 0H3.5C2.9 0 2.4.1 2 .3c-.3.2-.7.4-1 .7-.3.3-.5.7-.7 1.1-.1.4-.2.8-.3 1.4v5c0 .6.1 1.1.3 1.5.2.3.4.7.7 1 .3.3.7.5 1.1.7.4.1.8.2 1.5.3h5c.6 0 1.1-.1 1.5-.3.4-.2.7-.4 1.1-.7.3-.3.5-.7.7-1.1.1-.4.2-.8.3-1.5v-5c0-.6-.1-1.1-.3-1.5-.4-.2-.6-.6-.9-.9-.3-.3-.7-.5-1.1-.7C9.5.2 9.1.1 8.5 0H6m0 1.1h2.4c.6 0 .9.1 1.1.2.3.1.5.2.7.4.2.2.3.4.4.7.1.2.2.5.2 1.1v4.8c0 .6-.1.9-.2 1.1-.1.3-.2.5-.4.7-.2.2-.4.3-.7.4-.2.1-.5.2-1.1.2H3.6c-.6 0-.9-.1-1.1-.2-.3-.1-.5-.2-.7-.4-.2-.1-.4-.3-.5-.6-.1-.2-.2-.5-.2-1.1V3.6c0-.6.1-.9.2-1.1.1-.3.3-.5.5-.7.2-.2.4-.4.7-.5.2-.1.5-.2 1.1-.2H6"/>
		<path d="M6 8c-1.1 0-2-.9-2-2s.9-2 2-2 2 .9 2 2-.9 2-2 2m0-5.1C4.3 2.9 2.9 4.3 2.9 6S4.3 9.1 6 9.1 9.1 7.7 9.1 6 7.7 2.9 6 2.9m3.9-.1c0 .4-.3.7-.7.7-.4 0-.7-.3-.7-.7 0-.4.3-.7.7-.7.4 0 .7.3.7.7"/>
	</symbol>
	<symbol id="icon-left-arrow" viewBox="0 0 15.7 11.1">
		<path d="M15.7 4.7v1.7H3.6v.4L7.8 11H5.5L0 5.5 5.5 0h2.3L3.6 4.2v.5h12.1z"/>
	</symbol>
	<symbol id="icon-linkedin" viewBox="0 0 12 12">
		<path d="M10.2 10.2H8.4V7.4c0-.7 0-1.5-.9-1.5s-1.1.7-1.1 1.5v2.8H4.7V4.5h1.7v.8c.2-.5.8-.9 1.7-.9 1.8 0 2.1 1.2 2.1 2.7v3.1zM2.7 3.7c-.6 0-1-.5-1-1s.5-1 1-1c.6 0 1 .5 1 1s-.5 1-1 1m.9 6.5H1.8V4.5h1.8v5.7zM11.1 0H.9C.4 0 0 .4 0 .9v10.3c0 .4.4.8.9.8h10.2c.5 0 .9-.4.9-.9V.9c0-.5-.4-.9-.9-.9"/>
	</symbol>
	<symbol id="icon-facebook" viewBox="0 0 24 24">
		<path d="M22.675 0h-21.35c-.732 0-1.325.593-1.325 1.325v21.351c0 .731.593 1.324 1.325 1.324h11.495v-9.294h-3.128v-3.622h3.128v-2.671c0-3.1 1.893-4.788 4.659-4.788 1.325 0 2.463.099 2.795.143v3.24l-1.918.001c-1.504 0-1.795.715-1.795 1.763v2.313h3.587l-.467 3.622h-3.12v9.293h6.116c.73 0 1.323-.593 1.323-1.325v-21.35c0-.732-.593-1.325-1.325-1.325z"/>
	</symbol>
	<symbol id="icon-plus" viewBox="0 0 6.2 6.4">
		<path d="M3.5 0v2.8h2.7v.7H3.5v2.8h-.8V3.5H0v-.7h2.7V0h.8z"/>
	</symbol>
	<symbol id="icon-right-arrow-red" viewBox="0 0 15.7 11.1">
		<style>.st0{fill:#ff422d}</style>
		<path class="st0" d="M12.1 4.7v-.5L7.9 0h2.3l5.5 5.5-5.5 5.5H7.9l4.2-4.2v-.4H0V4.7h12.1z"/>
	</symbol>
	<symbol id="icon-right-arrow-soft-black" viewBox="0 0 15.7 11.1">
		<style>.st0{fill:#292926}</style>
		<path class="st0" d="M12.1 4.7v-.5L7.9 0h2.3l5.5 5.5-5.5 5.5H7.9l4.2-4.2v-.4H0V4.7h12.1z"/>
	</symbol>
	<symbol id="icon-right-arrow-white" viewBox="0 0 15.7 11.1">
		<style>.st0{fill:#fff}</style>
		<path class="st0" d="M12.1 4.7v-.5L7.9 0h2.3l5.5 5.5-5.5 5.5H7.9l4.2-4.2v-.4H0V4.7h12.1z"/>
	</symbol>
	<symbol id="icon-right-arrow" viewBox="0 0 15.7 11.1">
		<path d="M12.1 4.7v-.5L7.9 0h2.3l5.5 5.5-5.5 5.5H7.9l4.2-4.2v-.4H0V4.7h12.1z"/>
	</symbol>
	<symbol id="icon-search" viewBox="0 0 10.4 10.4">
		<path d="M8 0H4.7L2.4 2.3v3.3L4.7 8H8l2.3-2.3V2.3L8 0zm-.4 1l1.8 1.8v2.5L7.6 7H5.1L3.4 5.2V2.8L5.1 1h2.5z"/>
		<path d="M-.035 9.681L3.36 6.287l.708.707-3.395 3.394z"/>
	</symbol>
	<symbol id="icon-triangle" viewBox="0 0 7.7 6.2">
		<path d="M.9.9h.2L6.6 3v.2L1.1 5.3H.9V.9zM0 0v6.2h1.1l6.6-2.5V2.5L1.1 0H0z"/>
	</symbol>
	<symbol id="icon-twitter" viewBox="0 0 16 13">
		<path d="M5 13c6 0 9.3-5 9.3-9.3v-.4c.6-.5 1.2-1 1.6-1.7-.6.3-1.2.4-1.9.5.7-.4 1.2-1 1.4-1.8-.6.4-1.3.6-2.1.8-.6-.6-1.5-1-2.4-1C9.3 0 7.8 1.5 7.8 3.3c0 .3 0 .5.1.7C5.2 3.9 2.7 2.6 1.1.6c-.3.5-.4 1-.4 1.7 0 1.1.6 2.1 1.5 2.7-.5 0-1-.2-1.5-.4 0 1.6 1.1 2.9 2.6 3.2-.3.1-.6.1-.9.1-.2 0-.4 0-.6-.1.4 1.3 1.6 2.3 3.1 2.3-1.1.9-2.5 1.4-4.1 1.4H0c1.5 1 3.2 1.5 5 1.5"/>
	</symbol>
	<symbol id="icon-up-arrow" viewBox="0 0 11 15.7">
		<path d="M6.3 15.7H4.6V3.6h-.4L0 7.8V5.5L5.5 0 11 5.5v2.3L6.8 3.6h-.5v12.1z"/>
	</symbol>
	<symbol id="icon-x" viewBox="0 0 10.7 10.7">
		<path d="M.045.687L.752-.02l9.97 9.97-.707.707z"/>
		<path d="M.045 10.02l9.97-9.97.708.708-9.97 9.97z"/>
	</symbol>
	<symbol id="icon-youtube" viewBox="0 0 15 11">
		<path fill="#D1CCC2" fill-rule="evenodd" d="M14.687 1.64A1.878 1.878 0 0 0 13.362.314C12.191 0 7.498 0 7.498 0S2.811 0 1.64.314A1.88 1.88 0 0 0 .313 1.64C0 2.81 0 5.25 0 5.25s0 2.441.313 3.611a1.878 1.878 0 0 0 1.327 1.325c1.17.314 5.86.314 5.86.314s4.691 0 5.861-.314a1.877 1.877 0 0 0 1.325-1.325C15 7.691 15 5.251 15 5.251s0-2.44-.313-3.61zM5.998 7.5V3l3.899 2.25L6 7.5z"/>
	</symbol>
</svg>