<svg xmlns="http://www.w3.org/2000/svg"><symbol id="affiliated-engineers-logo" viewBox="0 0 340.7 74"><path d="M64.1 64.9V.4H44.2L0 64.8h19.9l27.7-40.4v24H37.2l.1 16.5z"/><path d="M73 .4h39.9v16.5H73z"/><path d="M73.1 24.4H113v16.5H73.1z"/><path d="M122.1.4h16.5v64.5h-16.5z"/><path d="M167.6 7.1l3.8 11.8h-7.6l3.8-11.8zm-5.5 17h11l1.9 6.2h6.8L171.3.4h-7.2l-10.7 29.9h6.6l2.1-6.2z"/><path d="M189.8 30.3H184v-18h-3.2V8.1h3.2V6.3c0-4.6 2.5-6.3 6.5-6.3 1.7 0 2.5 0 3 .1v4.7h-1.6c-2 0-2 .6-2 2.5v.9h3.8v4.2h-3.8v17.9z"/><path d="M201.6 30.3h-5.8v-18h-3.2V8.1h3.2V6.3c0-4.6 2.5-6.3 6.5-6.3 1.7 0 2.5 0 3 .1v4.7h-1.6c-2 0-2 .6-2 2.5v.9h3.8v4.2h-3.8v17.9z"/><path d="M213.2 8.1v22.2h-5.8V8.1h5.8zm0-2.6h-5.8V.1h5.8v5.4z"/><path d="M222.7 30.3h-5.8V.4h5.8v29.9z"/><path d="M232.2 8.1v22.2h-5.8V8.1h5.8zm0-2.6h-5.8V.1h5.8v5.4z"/><path d="M248 22.4c0 2.7-2.6 4.3-5.2 4.3-1.1 0-2.7-.6-2.7-2.7 0-2.4 1.8-2.9 4-3.3 2.4-.4 3.4-.7 4-1.2v2.9zm5.7-8.4c0-5.5-5.7-6.4-8.8-6.4-4.6 0-9.2 1-9.9 7.8h5.6c.2-1.3.7-3.1 3.6-3.1 1.5 0 3.8.1 3.8 2.6 0 1.2-1.1 1.6-2 1.7l-5.3.8c-3.7.5-6.4 2.7-6.4 7.1 0 4.5 3.4 6.4 6.7 6.4 4 0 5.8-1.8 7.2-3.2.1 1.3.2 1.6.5 2.7h6.3v-.9c-.7-.2-1.3-.8-1.3-3.5V14z"/><path d="M263.6 8.1h3.6v4.2h-3.6v12c0 1.3 0 1.8 2.4 1.8.4 0 .8 0 1.2-.1v4.4c-.9 0-1.8.1-2.8.1h-.8c-5 0-5.9-1.9-5.9-4.8V12.3h-3V8.1h3v-6h5.8v6z"/><path d="M273.5 17c.3-2.9 1.8-4.6 4.6-4.6 1.9 0 4.2 1.1 4.5 4.6h-9.1zm8.8 6.8c-.5 1.6-2.1 2.4-3.8 2.4-4.7 0-5.1-3.7-5.2-5.4h15.2v-1c0-10.1-6-12.2-10.4-12.2-9.7 0-10.6 8.5-10.6 11.2 0 9.1 4.8 12.1 11.1 12.1 3.8 0 8.2-1.8 9.8-7.1h-6.1z"/><path d="M295.9 19.4c0-3.5 1.2-6.8 4.9-6.8 4 0 5 3.6 5 7.1 0 3.3-1.5 6.4-5.2 6.4s-4.7-4.1-4.7-6.7zm15.5-19h-5.8V11h-.1c-.9-1.4-2.7-3.5-6.4-3.5-4.9 0-9.2 3.8-9.2 11.4 0 6.1 2.8 11.9 9.3 11.9 2.4 0 5-.9 6.4-3.4h.1v2.8h5.7V.4z"/><path d="M176.1 40.3h-15.9v6.3h14.6v5.3h-14.6v7.8h16.6V65h-22.7V35h22v5.3z"/><path d="M199.3 64.9h-5.8V51.5c0-1.6-.1-4.4-3.8-4.4-2.6 0-4.6 1.7-4.6 5.1v12.7h-5.8V42.7h5.6V46h.1c.8-1.3 2.5-3.8 6.7-3.8 4.3 0 7.7 2.5 7.7 7.4v15.3z"/><path d="M207.4 53.9c0-5.1 2.4-6.7 4.6-6.7 3.3 0 5 2.9 5 6.5 0 3-1 6.4-5 6.4-3.4 0-4.6-3.3-4.6-6.2zm9.8-11.2V46h-.1c-.7-1.5-2.4-3.9-6.5-3.9-4.9 0-9.2 3.8-9.2 11.4 0 7.7 4.2 11.5 9.5 11.5 3.5 0 5-1.6 5.9-3.3l.1.1v2.7c0 3.6-1.5 5.1-4.6 5.1-3.4 0-3.8-1.1-4.1-2.3h-6.3c.2 4.7 5.1 6.7 9.7 6.7 10.9 0 11.2-6.4 11.2-10.2v-21h-5.6z"/><path d="M231.8 42.7v22.2H226V42.7h5.8zm0-2.6H226v-5.4h5.8v5.4z"/><path d="M255.4 64.9h-5.8V51.5c0-1.6-.1-4.4-3.8-4.4-2.6 0-4.6 1.7-4.6 5.1v12.7h-5.8V42.7h5.6V46h.1c.8-1.3 2.5-3.8 6.7-3.8 4.3 0 7.7 2.5 7.7 7.4v15.3z"/><path d="M263.2 51.6c.3-2.9 1.8-4.6 4.6-4.6 1.9 0 4.2 1.1 4.5 4.6h-9.1zm8.8 6.8c-.5 1.6-2.1 2.4-3.8 2.4-4.7 0-5.1-3.7-5.2-5.4h15.2v-1c0-10.1-6-12.2-10.4-12.2-9.7 0-10.6 8.5-10.6 11.2 0 9.1 4.8 12.1 11.1 12.1 3.8 0 8.2-1.8 9.8-7.1H272z"/><path d="M285.4 51.6c.3-2.9 1.8-4.6 4.6-4.6 1.9 0 4.2 1.1 4.5 4.6h-9.1zm8.8 6.8c-.5 1.6-2.1 2.4-3.8 2.4-4.7 0-5.1-3.7-5.2-5.4h15.2v-1c0-10.1-6-12.2-10.4-12.2-9.7 0-10.6 8.5-10.6 11.2 0 9.1 4.8 12.1 11.1 12.1 3.8 0 8.2-1.8 9.8-7.1h-6.1z"/><path d="M302.4 42.7h5.6v3.8h.1c1.2-2.2 2.5-4.4 6.1-4.4.4 0 .8 0 1.1.1v5.9c-.5-.1-1.1-.1-1.7-.1-4.5 0-5.4 2.8-5.4 5.3v11.6h-5.8V42.7z"/><path d="M329.3 49.5c-.2-1.4-.8-2.9-3.9-2.9-3.2 0-3.6 1.2-3.6 2.2 0 3.5 13.9 1 13.9 9.1 0 6.4-6.2 7.6-9.7 7.6-5.1 0-10.5-1.8-10.7-7.7h6c0 1.9 1.2 3.2 4.8 3.2 3 0 3.7-1.4 3.7-2.3 0-3.7-13.8-.9-13.8-9.2 0-3.2 2-7.4 8.9-7.4 4.3 0 9.5 1.1 9.9 7.3h-5.5z"/><path d="M73.1 48.5H113V65H73.1z"/><path d="M335.8 45.6c0-1.3 1-2.2 2.2-2.2 1.2 0 2.2 1 2.2 2.2 0 1.3-1 2.2-2.2 2.2-1.3.1-2.2-.9-2.2-2.2zm2.2 2.7c1.5 0 2.7-1.1 2.7-2.7 0-1.5-1.2-2.7-2.7-2.7-1.5 0-2.7 1.1-2.7 2.7s1.2 2.7 2.7 2.7zm-.6-2.5h.5l.8 1.3h.5l-.9-1.4c.5-.1.8-.3.8-.8 0-.6-.4-.9-1.1-.9h-1.2v3.1h.5v-1.3zm0-.4v-1h.6c.3 0 .7.1.7.5 0 .5-.4.5-.8.5h-.5z"/></symbol><symbol id="icon-down-arrow" viewBox="0 0 11 15.7"><path d="M6.3 12.1h.5L11 7.9v2.3l-5.5 5.5L0 10.2V7.9l4.2 4.2h.4V0h1.7v12.1z"/></symbol><symbol id="icon-hamburger" viewBox="0 0 12 6"><path d="M12 6H0V5h12v1zm0-5H0V0h12v1z"/></symbol><symbol id="icon-instagram" viewBox="0 0 12 12"><path d="M6 0H3.5C2.9 0 2.4.1 2 .3c-.3.2-.7.4-1 .7-.3.3-.5.7-.7 1.1-.1.4-.2.8-.3 1.4v5c0 .6.1 1.1.3 1.5.2.3.4.7.7 1 .3.3.7.5 1.1.7.4.1.8.2 1.5.3h5c.6 0 1.1-.1 1.5-.3.4-.2.7-.4 1.1-.7.3-.3.5-.7.7-1.1.1-.4.2-.8.3-1.5v-5c0-.6-.1-1.1-.3-1.5-.4-.2-.6-.6-.9-.9-.3-.3-.7-.5-1.1-.7C9.5.2 9.1.1 8.5 0H6m0 1.1h2.4c.6 0 .9.1 1.1.2.3.1.5.2.7.4.2.2.3.4.4.7.1.2.2.5.2 1.1v4.8c0 .6-.1.9-.2 1.1-.1.3-.2.5-.4.7-.2.2-.4.3-.7.4-.2.1-.5.2-1.1.2H3.6c-.6 0-.9-.1-1.1-.2-.3-.1-.5-.2-.7-.4-.2-.1-.4-.3-.5-.6-.1-.2-.2-.5-.2-1.1V3.6c0-.6.1-.9.2-1.1.1-.3.3-.5.5-.7.2-.2.4-.4.7-.5.2-.1.5-.2 1.1-.2H6"/><path d="M6 8c-1.1 0-2-.9-2-2s.9-2 2-2 2 .9 2 2-.9 2-2 2m0-5.1C4.3 2.9 2.9 4.3 2.9 6S4.3 9.1 6 9.1 9.1 7.7 9.1 6 7.7 2.9 6 2.9m3.9-.1c0 .4-.3.7-.7.7-.4 0-.7-.3-.7-.7 0-.4.3-.7.7-.7.4 0 .7.3.7.7"/></symbol><symbol id="icon-left-arrow" viewBox="0 0 15.7 11.1"><path d="M15.7 4.7v1.7H3.6v.4L7.8 11H5.5L0 5.5 5.5 0h2.3L3.6 4.2v.5h12.1z"/></symbol><symbol id="icon-linkedin" viewBox="0 0 12 12"><path d="M10.2 10.2H8.4V7.4c0-.7 0-1.5-.9-1.5s-1.1.7-1.1 1.5v2.8H4.7V4.5h1.7v.8c.2-.5.8-.9 1.7-.9 1.8 0 2.1 1.2 2.1 2.7v3.1zM2.7 3.7c-.6 0-1-.5-1-1s.5-1 1-1c.6 0 1 .5 1 1s-.5 1-1 1m.9 6.5H1.8V4.5h1.8v5.7zM11.1 0H.9C.4 0 0 .4 0 .9v10.3c0 .4.4.8.9.8h10.2c.5 0 .9-.4.9-.9V.9c0-.5-.4-.9-.9-.9"/></symbol><symbol id="icon-plus" viewBox="0 0 6.2 6.4"><path d="M3.5 0v2.8h2.7v.7H3.5v2.8h-.8V3.5H0v-.7h2.7V0h.8z"/></symbol><symbol id="icon-right-arrow-soft-black" viewBox="0 0 15.7 11.1"><style>.st0{fill:#292926}</style><path class="st0" d="M12.1 4.7v-.5L7.9 0h2.3l5.5 5.5-5.5 5.5H7.9l4.2-4.2v-.4H0V4.7h12.1z"/></symbol><symbol id="icon-right-arrow-white" viewBox="0 0 15.7 11.1"><style>.st0{fill:#fff}</style><path class="st0" d="M12.1 4.7v-.5L7.9 0h2.3l5.5 5.5-5.5 5.5H7.9l4.2-4.2v-.4H0V4.7h12.1z"/></symbol><symbol id="icon-right-arrow" viewBox="0 0 15.7 11.1"><path d="M12.1 4.7v-.5L7.9 0h2.3l5.5 5.5-5.5 5.5H7.9l4.2-4.2v-.4H0V4.7h12.1z"/></symbol><symbol id="icon-search" viewBox="0 0 10.4 10.4"><path d="M8 0H4.7L2.4 2.3v3.3L4.7 8H8l2.3-2.3V2.3L8 0zm-.4 1l1.8 1.8v2.5L7.6 7H5.1L3.4 5.2V2.8L5.1 1h2.5z"/><path d="M-.035 9.681L3.36 6.287l.708.707-3.395 3.394z"/></symbol><symbol id="icon-triangle" viewBox="0 0 7.7 6.2"><path d="M.9.9h.2L6.6 3v.2L1.1 5.3H.9V.9zM0 0v6.2h1.1l6.6-2.5V2.5L1.1 0H0z"/></symbol><symbol id="icon-twitter" viewBox="0 0 16 13"><path d="M5 13c6 0 9.3-5 9.3-9.3v-.4c.6-.5 1.2-1 1.6-1.7-.6.3-1.2.4-1.9.5.7-.4 1.2-1 1.4-1.8-.6.4-1.3.6-2.1.8-.6-.6-1.5-1-2.4-1C9.3 0 7.8 1.5 7.8 3.3c0 .3 0 .5.1.7C5.2 3.9 2.7 2.6 1.1.6c-.3.5-.4 1-.4 1.7 0 1.1.6 2.1 1.5 2.7-.5 0-1-.2-1.5-.4 0 1.6 1.1 2.9 2.6 3.2-.3.1-.6.1-.9.1-.2 0-.4 0-.6-.1.4 1.3 1.6 2.3 3.1 2.3-1.1.9-2.5 1.4-4.1 1.4H0c1.5 1 3.2 1.5 5 1.5"/></symbol><symbol id="icon-up-arrow" viewBox="0 0 11 15.7"><path d="M6.3 15.7H4.6V3.6h-.4L0 7.8V5.5L5.5 0 11 5.5v2.3L6.8 3.6h-.5v12.1z"/></symbol><symbol id="icon-x" viewBox="0 0 10.7 10.7"><path d="M.045.687L.752-.02l9.97 9.97-.707.707z"/><path d="M.045 10.02l9.97-9.97.708.708-9.97 9.97z"/></symbol></svg>