<svg xmlns="http://www.w3.org/2000/svg" width="211" height="46" viewBox="0 0 211 46"><path d="M0 40.161l12.31.004 17.187-25.051v14.863h-6.435l.019 10.227h16.614L39.688.224 27.398.223z"/><path d="M45.244 10.435h24.699V.241H45.244z"/><path d="M45.252 25.29H69.95V15.095H45.252z"/><path d="M75.634 40.197h10.19V.244h-10.19z"/><path d="M101.643.229l-6.608 18.546h4.078l1.292-3.837h6.841l1.187 3.837h4.206L106.11.229h-4.466zm2.17 4.18h.05l2.297 7.323h-4.724l2.376-7.323zm13.725 14.366h-3.6V7.62h-1.987V5.033h1.987V3.927c0-2.84 1.543-3.927 4.013-3.927 1.058 0 1.549.026 1.858.052v2.922h-1.006c-1.24 0-1.265.387-1.265 1.519v.54h2.349V7.62h-2.35v11.154z"/><path d="M124.894 18.775h-3.6V7.62h-1.988V5.033h1.988V3.927c0-2.84 1.543-3.927 4.013-3.927 1.058 0 1.548.026 1.858.052v2.922h-1.006c-1.239 0-1.265.387-1.265 1.519v.54h2.348V7.62h-2.348v11.154zM128.443 3.4h3.6V.038h-3.6v3.36zm0 15.376h3.6V5.03h-3.6v13.745z"/><path d="M134.328 18.776h3.6V.23h-3.6z"/><path d="M140.214 3.4h3.6V.038h-3.6v3.36zm0 15.376h3.6V5.03h-3.6v13.745zm13.394-4.927c0 1.656-1.63 2.684-3.234 2.684-.698 0-1.682-.386-1.682-1.647 0-1.491 1.113-1.825 2.458-2.057 1.501-.231 2.096-.462 2.458-.745v1.765zm3.523-5.184c0-3.385-3.523-3.98-5.462-3.98-2.82 0-5.728.595-6.14 4.806h3.474c.103-.8.414-1.91 2.225-1.91.932 0 2.38.077 2.38 1.6 0 .773-.697 1.006-1.267 1.083l-3.26.49c-2.29.335-3.989 1.702-3.989 4.384 0 2.818 2.11 3.982 4.17 3.982 2.458 0 3.623-1.138 4.45-1.993.077.796.128 1.003.333 1.648h3.887v-.542c-.44-.155-.8-.516-.8-2.141V8.665zm6.107-3.632h2.246V7.62h-2.246v7.454c0 .801.026 1.11 1.497 1.11.232 0 .49-.026.749-.052v2.742c-.568.026-1.137.052-1.704.052h-.464c-3.112 0-3.678-1.19-3.678-2.975v-8.33h-1.858V5.032h1.858V1.315h3.6v3.718zm6.13 5.499c.206-1.795 1.112-2.873 2.82-2.873 1.163 0 2.586.668 2.793 2.873h-5.614zm5.457 4.203c-.284.975-1.319 1.489-2.327 1.489-2.924 0-3.13-2.311-3.234-3.337h9.433v-.647c0-6.262-3.742-7.554-6.458-7.554-6.02 0-6.588 5.28-6.588 6.932 0 5.639 2.967 7.502 6.847 7.502 2.353 0 5.09-1.086 6.045-4.385h-3.718zm8.43-2.73c0-2.16.772-4.192 3.064-4.192 2.471 0 3.09 2.212 3.09 4.398 0 2.031-.902 3.934-3.193 3.934-2.317 0-2.962-2.52-2.962-4.14zm9.6-11.777h-3.6v6.603h-.052c-.566-.88-1.648-2.147-3.966-2.147-3.015 0-5.699 2.329-5.699 7.064 0 3.756 1.703 7.371 5.777 7.371 1.493 0 3.09-.543 3.965-2.095h.052v1.75h3.523V.229z"/><path d="M109.043 24.957h-9.834v3.879h9.033v3.284h-9.033v4.808h10.274v3.284H95.415V21.673h13.628z"/><path d="M123.457 40.216h-3.6v-8.331c0-1.005-.052-2.707-2.348-2.707-1.601 0-2.838 1.083-2.838 3.147v7.89h-3.6V26.472h3.445v2.034h.05c.492-.827 1.523-2.378 4.129-2.378 2.679 0 4.762 1.576 4.762 4.598v9.49zm5.023-6.806c0-3.176 1.5-4.156 2.845-4.156 2.017 0 3.103 1.803 3.103 4.018 0 1.88-.62 3.966-3.077 3.966-2.148 0-2.871-2.069-2.871-3.828zm6.076-6.939v2.06h-.05c-.44-.906-1.476-2.406-4.036-2.406-3.025 0-5.707 2.328-5.707 7.07 0 4.793 2.605 7.095 5.915 7.095 2.173 0 3.077-1.008 3.672-2.07l.053.053v1.654c0 2.225-.933 3.157-2.873 3.157-2.094 0-2.38-.698-2.535-1.397h-3.922c.156 2.923 3.147 4.14 5.992 4.14 6.756 0 6.938-3.959 6.938-6.339V26.471h-3.447zm5.423 13.746h3.6V26.472h-3.6v13.745zm0-15.377h3.6V21.48h-3.6v3.361zm18.195 15.376h-3.6v-8.331c0-1.005-.052-2.707-2.349-2.707-1.6 0-2.838 1.083-2.838 3.147v7.89h-3.6V26.472h3.445v2.034h.052c.49-.827 1.522-2.378 4.128-2.378 2.68 0 4.762 1.576 4.762 4.598v9.49zm4.816-8.243c.206-1.795 1.112-2.873 2.818-2.873 1.166 0 2.59.667 2.795 2.873h-5.613zm5.457 4.203c-.284.975-1.319 1.489-2.327 1.489-2.924 0-3.13-2.311-3.234-3.337h9.433v-.648c0-6.261-3.742-7.553-6.458-7.553-6.02 0-6.587 5.28-6.587 6.932 0 5.639 2.967 7.502 6.846 7.502 2.354 0 5.09-1.086 6.044-4.385h-3.717zm8.3-4.203c.206-1.795 1.113-2.873 2.82-2.873 1.164 0 2.587.667 2.793 2.873h-5.613zm5.458 4.203c-.284.975-1.319 1.489-2.327 1.489-2.925 0-3.13-2.311-3.234-3.337h9.432v-.648c0-6.261-3.74-7.553-6.457-7.553-6.02 0-6.588 5.28-6.588 6.932 0 5.639 2.968 7.502 6.847 7.502 2.352 0 5.09-1.086 6.043-4.385h-3.716zm5.1-9.705h3.445v2.368h.053c.748-1.383 1.573-2.717 3.768-2.717.232 0 .464.027.697.052v3.64c-.31-.051-.697-.051-1.034-.051-2.814 0-3.329 1.758-3.329 3.286v7.167h-3.6V26.47zm16.66 4.2c-.154-.875-.464-1.803-2.42-1.803-1.965 0-2.224.747-2.224 1.34 0 2.166 8.594.592 8.594 5.637 0 3.992-3.86 4.716-6.007 4.716-3.13 0-6.51-1.087-6.613-4.741h3.716c0 1.153.724 1.999 3 1.999 1.863 0 2.304-.897 2.304-1.41 0-2.284-8.517-.564-8.517-5.685 0-2.011 1.259-4.598 5.536-4.598 2.682 0 5.87.673 6.155 4.546h-3.523z"/><path d="M45.247 40.219h24.698V30.026H45.247z"/><path d="M207.98 28.262c0-.784.59-1.375 1.349-1.375.748 0 1.339.59 1.339 1.375 0 .797-.591 1.384-1.34 1.384-.757 0-1.348-.587-1.348-1.384zm1.349 1.66c.902 0 1.67-.701 1.67-1.66 0-.951-.768-1.651-1.67-1.651-.912 0-1.682.7-1.682 1.65 0 .96.77 1.66 1.682 1.66zm-.351-1.528h.332l.505.827h.322l-.542-.84c.28-.036.494-.185.494-.526 0-.377-.222-.544-.674-.544h-.727v1.91h.29v-.827zm0-.246v-.591h.394c.202 0 .417.044.417.28 0 .293-.22.31-.465.31h-.346z"/></svg>