<svg id="Layer_1" xmlns="http://www.w3.org/2000/svg" viewBox="0 0 340.7 74"><path d="M64.1 64.9V.4H44.2L0 64.8h19.9l27.7-40.4v24H37.2l.1 16.5z"/><path d="M73 .4h39.9v16.5H73z"/><path d="M73.1 24.4H113v16.5H73.1z"/><path d="M122.1.4h16.5v64.5h-16.5z"/><path d="M167.6 7.1l3.8 11.8h-7.6l3.8-11.8zm-5.5 17h11l1.9 6.2h6.8L171.3.4h-7.2l-10.7 29.9h6.6l2.1-6.2z"/><path d="M189.8 30.3H184v-18h-3.2V8.1h3.2V6.3c0-4.6 2.5-6.3 6.5-6.3 1.7 0 2.5 0 3 .1v4.7h-1.6c-2 0-2 .6-2 2.5v.9h3.8v4.2h-3.8v17.9z"/><path d="M201.6 30.3h-5.8v-18h-3.2V8.1h3.2V6.3c0-4.6 2.5-6.3 6.5-6.3 1.7 0 2.5 0 3 .1v4.7h-1.6c-2 0-2 .6-2 2.5v.9h3.8v4.2h-3.8v17.9z"/><path d="M213.2 8.1v22.2h-5.8V8.1h5.8zm0-2.6h-5.8V.1h5.8v5.4z"/><path d="M222.7 30.3h-5.8V.4h5.8v29.9z"/><path d="M232.2 8.1v22.2h-5.8V8.1h5.8zm0-2.6h-5.8V.1h5.8v5.4z"/><path d="M248 22.4c0 2.7-2.6 4.3-5.2 4.3-1.1 0-2.7-.6-2.7-2.7 0-2.4 1.8-2.9 4-3.3 2.4-.4 3.4-.7 4-1.2v2.9zm5.7-8.4c0-5.5-5.7-6.4-8.8-6.4-4.6 0-9.2 1-9.9 7.8h5.6c.2-1.3.7-3.1 3.6-3.1 1.5 0 3.8.1 3.8 2.6 0 1.2-1.1 1.6-2 1.7l-5.3.8c-3.7.5-6.4 2.7-6.4 7.1 0 4.5 3.4 6.4 6.7 6.4 4 0 5.8-1.8 7.2-3.2.1 1.3.2 1.6.5 2.7h6.3v-.9c-.7-.2-1.3-.8-1.3-3.5V14z"/><path d="M263.6 8.1h3.6v4.2h-3.6v12c0 1.3 0 1.8 2.4 1.8.4 0 .8 0 1.2-.1v4.4c-.9 0-1.8.1-2.8.1h-.8c-5 0-5.9-1.9-5.9-4.8V12.3h-3V8.1h3v-6h5.8v6z"/><path d="M273.5 17c.3-2.9 1.8-4.6 4.6-4.6 1.9 0 4.2 1.1 4.5 4.6h-9.1zm8.8 6.8c-.5 1.6-2.1 2.4-3.8 2.4-4.7 0-5.1-3.7-5.2-5.4h15.2v-1c0-10.1-6-12.2-10.4-12.2-9.7 0-10.6 8.5-10.6 11.2 0 9.1 4.8 12.1 11.1 12.1 3.8 0 8.2-1.8 9.8-7.1h-6.1z"/><path d="M295.9 19.4c0-3.5 1.2-6.8 4.9-6.8 4 0 5 3.6 5 7.1 0 3.3-1.5 6.4-5.2 6.4s-4.7-4.1-4.7-6.7zm15.5-19h-5.8V11h-.1c-.9-1.4-2.7-3.5-6.4-3.5-4.9 0-9.2 3.8-9.2 11.4 0 6.1 2.8 11.9 9.3 11.9 2.4 0 5-.9 6.4-3.4h.1v2.8h5.7V.4z"/><path d="M176.1 40.3h-15.9v6.3h14.6v5.3h-14.6v7.8h16.6V65h-22.7V35h22v5.3z"/><path d="M199.3 64.9h-5.8V51.5c0-1.6-.1-4.4-3.8-4.4-2.6 0-4.6 1.7-4.6 5.1v12.7h-5.8V42.7h5.6V46h.1c.8-1.3 2.5-3.8 6.7-3.8 4.3 0 7.7 2.5 7.7 7.4v15.3z"/><path d="M207.4 53.9c0-5.1 2.4-6.7 4.6-6.7 3.3 0 5 2.9 5 6.5 0 3-1 6.4-5 6.4-3.4 0-4.6-3.3-4.6-6.2zm9.8-11.2V46h-.1c-.7-1.5-2.4-3.9-6.5-3.9-4.9 0-9.2 3.8-9.2 11.4 0 7.7 4.2 11.5 9.5 11.5 3.5 0 5-1.6 5.9-3.3l.1.1v2.7c0 3.6-1.5 5.1-4.6 5.1-3.4 0-3.8-1.1-4.1-2.3h-6.3c.2 4.7 5.1 6.7 9.7 6.7 10.9 0 11.2-6.4 11.2-10.2v-21h-5.6z"/><path d="M231.8 42.7v22.2H226V42.7h5.8zm0-2.6H226v-5.4h5.8v5.4z"/><path d="M255.4 64.9h-5.8V51.5c0-1.6-.1-4.4-3.8-4.4-2.6 0-4.6 1.7-4.6 5.1v12.7h-5.8V42.7h5.6V46h.1c.8-1.3 2.5-3.8 6.7-3.8 4.3 0 7.7 2.5 7.7 7.4v15.3z"/><path d="M263.2 51.6c.3-2.9 1.8-4.6 4.6-4.6 1.9 0 4.2 1.1 4.5 4.6h-9.1zm8.8 6.8c-.5 1.6-2.1 2.4-3.8 2.4-4.7 0-5.1-3.7-5.2-5.4h15.2v-1c0-10.1-6-12.2-10.4-12.2-9.7 0-10.6 8.5-10.6 11.2 0 9.1 4.8 12.1 11.1 12.1 3.8 0 8.2-1.8 9.8-7.1H272z"/><path d="M285.4 51.6c.3-2.9 1.8-4.6 4.6-4.6 1.9 0 4.2 1.1 4.5 4.6h-9.1zm8.8 6.8c-.5 1.6-2.1 2.4-3.8 2.4-4.7 0-5.1-3.7-5.2-5.4h15.2v-1c0-10.1-6-12.2-10.4-12.2-9.7 0-10.6 8.5-10.6 11.2 0 9.1 4.8 12.1 11.1 12.1 3.8 0 8.2-1.8 9.8-7.1h-6.1z"/><path d="M302.4 42.7h5.6v3.8h.1c1.2-2.2 2.5-4.4 6.1-4.4.4 0 .8 0 1.1.1v5.9c-.5-.1-1.1-.1-1.7-.1-4.5 0-5.4 2.8-5.4 5.3v11.6h-5.8V42.7z"/><path d="M329.3 49.5c-.2-1.4-.8-2.9-3.9-2.9-3.2 0-3.6 1.2-3.6 2.2 0 3.5 13.9 1 13.9 9.1 0 6.4-6.2 7.6-9.7 7.6-5.1 0-10.5-1.8-10.7-7.7h6c0 1.9 1.2 3.2 4.8 3.2 3 0 3.7-1.4 3.7-2.3 0-3.7-13.8-.9-13.8-9.2 0-3.2 2-7.4 8.9-7.4 4.3 0 9.5 1.1 9.9 7.3h-5.5z"/><path d="M73.1 48.5H113V65H73.1z"/><path d="M335.8 45.6c0-1.3 1-2.2 2.2-2.2 1.2 0 2.2 1 2.2 2.2 0 1.3-1 2.2-2.2 2.2-1.3.1-2.2-.9-2.2-2.2zm2.2 2.7c1.5 0 2.7-1.1 2.7-2.7 0-1.5-1.2-2.7-2.7-2.7-1.5 0-2.7 1.1-2.7 2.7s1.2 2.7 2.7 2.7zm-.6-2.5h.5l.8 1.3h.5l-.9-1.4c.5-.1.8-.3.8-.8 0-.6-.4-.9-1.1-.9h-1.2v3.1h.5v-1.3zm0-.4v-1h.6c.3 0 .7.1.7.5 0 .5-.4.5-.8.5h-.5z"/></svg>